<svg width="77" height="86" viewBox="0 0 77 86" fill="none" xmlns="http://www.w3.org/2000/svg">
<path fill-rule="evenodd" clip-rule="evenodd" d="M40.9515 15.1902C40.9515 13.2778 40.5063 11.3917 39.651 9.68116C38.9117 8.20262 38.4777 6.59042 38.3746 4.94057L38.1273 0.985199L37.8801 4.94043C37.7769 6.5903 37.3428 8.20255 36.6036 9.68111C35.7484 11.3917 35.303 13.2778 35.303 15.1902V71.5074C35.303 73.4198 35.7484 75.306 36.6036 77.0166C37.3428 78.4951 37.7769 80.1074 37.8801 81.7573L38.1273 85.7125L38.3746 81.7571C38.4777 80.1072 38.9117 78.4951 39.651 77.0165C40.5063 75.306 40.9515 73.42 40.9515 71.5074V15.1902ZM25.5297 15.3296C26.3851 17.0402 26.8303 18.9264 26.8303 20.8387V65.8589C26.8303 67.7715 26.3851 69.6575 25.5297 71.3681C24.7905 72.8466 24.3564 74.4589 24.2532 76.1086L24.0061 80.064L23.7589 76.1086C23.6557 74.4589 23.2216 72.8466 22.4824 71.3681C21.627 69.6575 21.1818 67.7715 21.1818 65.8589V20.8387C21.1818 18.9264 21.627 17.0402 22.4824 15.3296C23.2216 13.8511 23.6557 12.2389 23.7589 10.589L24.0061 6.6337L24.2532 10.589C24.3564 12.2389 24.7905 13.8511 25.5297 15.3296ZM19.7697 26.4872C19.7697 24.5747 19.3245 22.6886 18.4691 20.9782C17.7299 19.4995 17.2958 17.8873 17.1927 16.2375L16.9455 12.2822L16.6982 16.2375C16.5951 17.8873 16.161 19.4995 15.4217 20.9782C14.5665 22.6886 14.1212 24.5747 14.1212 26.4872V60.2105C14.1212 62.1228 14.5665 64.0091 15.4217 65.7195C16.161 67.1982 16.5951 68.8103 16.6982 70.4602L16.9455 74.4155L17.1927 70.4602C17.2958 68.8103 17.7299 67.1982 18.4691 65.7195C19.3245 64.0091 19.7697 62.1228 19.7697 60.2105V26.4872ZM11.4086 32.275C12.2638 33.9856 12.7091 35.8717 12.7091 37.7842V48.9135C12.7091 50.8258 12.2638 52.7121 11.4086 54.4225C10.6693 55.9012 10.2352 57.5133 10.1321 59.1632L9.88485 63.1185L9.63764 59.1632C9.53452 57.5133 9.1004 55.9012 8.36112 54.4225C7.50587 52.7121 7.06061 50.8258 7.06061 48.9135V37.7842C7.06061 35.8717 7.50587 33.9856 8.36112 32.275C9.1004 30.7965 9.53452 29.1842 9.63764 27.5345L9.88485 23.5791L10.1321 27.5345C10.2352 29.1842 10.6693 30.7965 11.4086 32.275ZM5.6482 43.3488L5.64848 43.4327V43.265L5.6482 43.3488ZM0 43.4327L0.000284934 43.3488C0.0130961 45.2326 0.457751 47.0887 1.30051 48.774C2.03979 50.2527 2.47391 51.8648 2.57703 53.5147L2.82424 57.4701L3.07145 53.5147C3.17457 51.8648 3.60869 50.2527 4.34797 48.774C5.19073 47.0887 5.63539 45.2326 5.6482 43.3488C5.63539 41.4651 5.19073 39.609 4.34797 37.9236C3.60869 36.445 3.17457 34.8329 3.07145 33.183L2.82424 29.2276L2.57703 33.183C2.47391 34.8329 2.03979 36.445 1.30051 37.9236C0.457751 39.609 0.0130961 41.4651 0.000284934 43.3488L0 43.265V43.4327ZM32.5903 9.68115C33.4457 11.3917 33.8909 13.2778 33.8909 15.1902V71.5074C33.8909 73.42 33.4457 75.306 32.5903 77.0165C31.8511 78.4951 31.417 80.1072 31.3138 81.7571L31.0667 85.7125L30.8195 81.7571C30.7163 80.1072 30.2822 78.4951 29.543 77.0165C28.6876 75.306 28.2424 73.42 28.2424 71.5074V15.1902C28.2424 13.2778 28.6876 11.3917 29.543 9.68115C30.2822 8.20259 30.7163 6.59035 30.8195 4.9405L31.0667 0.985199L31.3138 4.9405C31.417 6.59035 31.8511 8.20259 32.5903 9.68115ZM46.7116 9.68115C47.5669 11.3917 48.0121 13.2778 48.0121 15.1902V71.5074C48.0121 73.42 47.5669 75.306 46.7116 77.0165C45.9723 78.4951 45.5383 80.1072 45.435 81.7571L45.1879 85.7125L44.9408 81.7571C44.8375 80.1072 44.4034 78.4951 43.6642 77.0165C42.8088 75.306 42.3636 73.42 42.3636 71.5074V15.1902C42.3636 13.2778 42.8088 11.3917 43.6642 9.68115C44.4034 8.20259 44.8375 6.59035 44.9408 4.9405L45.1879 0.985199L45.435 4.9405C45.5383 6.59035 45.9723 8.20259 46.7116 9.68115ZM55.0727 20.8387C55.0727 18.9264 54.6276 17.0402 53.7722 15.3296C53.0329 13.8511 52.5989 12.2389 52.4956 10.589L52.2485 6.6337L52.0014 10.589C51.8981 12.2389 51.4641 13.8511 50.7248 15.3296C49.8694 17.0402 49.4242 18.9264 49.4242 20.8387V65.8589C49.4242 67.7715 49.8694 69.6575 50.7248 71.3681C51.4641 72.8466 51.8981 74.4589 52.0014 76.1086L52.2485 80.064L52.4956 76.1086C52.5989 74.4589 53.0329 72.8466 53.7722 71.3681C54.6276 69.6575 55.0727 67.7715 55.0727 65.8589V20.8387ZM60.8328 20.9782C61.6882 22.6886 62.1333 24.5747 62.1333 26.4872V60.2105C62.1333 62.1228 61.6882 64.0091 60.8328 65.7195C60.0935 67.1982 59.6595 68.8103 59.5562 70.4602L59.3091 74.4155L59.062 70.4602C58.9587 68.8103 58.5247 67.1982 57.7854 65.7195C56.9302 64.0091 56.4848 62.1228 56.4848 60.2105V26.4872C56.4848 24.5747 56.9302 22.6886 57.7854 20.9782C58.5247 19.4995 58.9587 17.8873 59.062 16.2375L59.3091 12.2822L59.5562 16.2375C59.6595 17.8873 60.0935 19.4995 60.8328 20.9782ZM69.1939 37.7842C69.1939 35.8717 68.7488 33.9856 67.8934 32.275C67.1541 30.7965 66.7201 29.1842 66.6168 27.5345L66.3697 23.5791L66.1226 27.5345C66.0193 29.1842 65.5853 30.7965 64.846 32.275C63.9908 33.9856 63.5455 35.8717 63.5455 37.7842V48.9135C63.5455 50.8258 63.9908 52.7121 64.846 54.4225C65.5853 55.9012 66.0193 57.5133 66.1226 59.1632L66.3697 63.1185L66.6168 59.1632C66.7201 57.5133 67.1541 55.9012 67.8934 54.4225C68.7488 52.7121 69.1939 50.8258 69.1939 48.9135V37.7842ZM76.2542 43.3488C76.2544 43.3767 76.2545 43.4046 76.2545 43.4327V43.265C76.2545 43.2931 76.2544 43.3209 76.2542 43.3488ZM70.6064 43.3488C70.6191 45.2326 71.0638 47.0887 71.9066 48.774C72.6459 50.2527 73.0799 51.8648 73.1832 53.5147L73.4303 57.4701L73.6774 53.5147C73.7807 51.8648 74.2147 50.2527 74.954 48.774C75.7968 47.0887 76.2415 45.2326 76.2542 43.3488C76.2415 41.4651 75.7968 39.609 74.954 37.9236C74.2147 36.445 73.7807 34.8329 73.6774 33.183L73.4303 29.2276L73.1832 33.183C73.0799 34.8329 72.6459 36.445 71.9066 37.9236C71.0638 39.609 70.6191 41.4651 70.6064 43.3488ZM70.6064 43.3488C70.6062 43.3209 70.6061 43.2931 70.6061 43.265V43.4327C70.6061 43.4046 70.6062 43.3767 70.6064 43.3488Z" fill="#394149"/>
</svg>
